<?xml version="1.0" standalone="no"?>
<!DOCTYPE svg PUBLIC "-//W3C//DTD SVG 20010904//EN"
 "http://www.w3.org/TR/2001/REC-SVG-20010904/DTD/svg10.dtd">
<svg version="1.0" xmlns="http://www.w3.org/2000/svg"
 width="256.000000pt" height="99.000000pt" viewBox="0 0 256.000000 99.000000"
 preserveAspectRatio="xMidYMid meet">

<g transform="translate(0.000000,99.000000) scale(0.100000,-0.100000)"
fill="#000000" stroke="none">
<path d="M845 780 c-3 -6 -52 -10 -111 -10 -65 0 -104 -4 -104 -10 0 -6 7 -13
15 -16 15 -6 216 11 274 22 45 9 40 -16 -11 -63 -23 -21 -63 -58 -89 -83 -107
-104 -212 -201 -256 -237 -26 -21 -65 -54 -86 -72 -21 -19 -47 -42 -58 -50
-11 -9 -37 -31 -57 -48 -20 -18 -40 -33 -44 -33 -4 0 -8 -4 -8 -10 0 -19 29
-10 112 32 96 49 158 77 208 90 19 6 49 16 65 22 50 21 100 36 121 36 11 0 24
4 29 9 9 9 94 27 178 38 20 3 37 9 37 14 0 5 12 9 27 9 40 0 133 23 133 33 0
4 4 6 9 2 5 -3 12 -1 16 5 7 11 -87 1 -95 -10 -5 -7 -31 -12 -137 -26 -24 -3
-43 -10 -43 -15 0 -5 -15 -9 -34 -9 -19 0 -37 -4 -40 -9 -3 -4 -27 -11 -53
-15 -53 -7 -105 -22 -143 -41 -14 -7 -51 -18 -83 -26 -31 -7 -62 -18 -68 -26
-6 -7 -22 -13 -34 -13 -13 0 -25 -4 -27 -8 -1 -5 -16 -12 -33 -16 -28 -6 -29
-6 -10 9 27 21 152 135 178 163 11 12 24 22 28 22 4 0 27 19 52 43 24 23 91
85 148 137 136 126 159 149 159 160 0 13 -157 13 -165 0z"/>
<path d="M1875 670 c-43 -32 -108 -40 -122 -17 -17 29 -46 36 -78 19 -16 -9
-32 -20 -35 -23 -3 -3 -32 -20 -65 -39 -33 -18 -74 -44 -91 -57 -17 -13 -34
-23 -37 -23 -14 0 -6 31 13 50 23 23 26 50 8 68 -15 15 -36 15 -53 0 -28 -28
-56 -48 -64 -48 -11 0 -41 -34 -41 -47 0 -6 6 -13 14 -16 17 -7 76 13 76 25 0
4 7 8 15 8 19 0 19 -4 -1 -46 -16 -34 -29 -40 -112 -48 -17 -1 -35 -6 -40 -11
-4 -4 21 -5 56 -1 l63 7 -51 -51 c-27 -29 -50 -56 -50 -61 0 -5 -4 -9 -8 -9
-5 0 -15 -12 -23 -27 -8 -16 -22 -37 -31 -47 -19 -20 -24 -61 -10 -70 5 -3 26
14 48 37 59 63 71 80 79 107 l7 25 -18 -24 c-45 -57 -77 -91 -81 -88 -7 8 22
62 52 95 16 19 34 40 38 48 8 15 37 20 37 6 0 -4 -5 -13 -12 -20 -6 -6 -9 -14
-6 -17 3 -3 17 19 32 49 26 52 28 54 74 60 75 9 96 12 117 19 11 3 55 9 98 11
83 6 119 17 97 31 -7 4 -15 3 -19 -2 -3 -5 -24 -10 -47 -11 -23 -2 -77 -8
-120 -15 -43 -7 -89 -11 -102 -9 l-23 3 25 20 c13 10 29 19 34 19 6 0 12 4 14
8 5 13 101 63 107 56 3 -4 0 -9 -6 -11 -15 -6 -17 -39 -3 -48 14 -9 80 47 80
68 0 15 4 17 23 10 12 -4 47 -8 77 -8 49 0 59 4 88 32 52 52 40 59 -23 13z
m-187 -55 c-6 -14 -15 -25 -20 -25 -11 0 -10 7 4 30 18 29 30 25 16 -5z m-278
-20 c-7 -8 -20 -15 -29 -15 -11 1 -8 5 9 15 32 18 35 18 20 0z"/>
<path d="M1173 571 c-41 -44 -43 -45 -43 -20 0 22 -25 48 -35 37 -5 -5 -7 -32
-6 -70 1 -49 15 -48 71 2 44 40 44 40 63 19 19 -20 50 -19 72 4 7 7 4 8 -7 4
-31 -11 -48 3 -48 39 0 46 -16 42 -67 -15z"/>
<path d="M2195 571 c-3 -2 -32 -3 -65 -3 -33 0 -62 -3 -65 -9 -4 -5 60 -9 165
-9 133 0 171 3 168 13 -6 15 -98 23 -98 7 0 -6 -4 -8 -10 -5 -12 7 -89 12 -95
6z"/>
<path d="M2025 560 c-3 -5 -1 -10 4 -10 6 0 11 5 11 10 0 6 -2 10 -4 10 -3 0
-8 -4 -11 -10z"/>
<path d="M1814 538 c-3 -4 13 -8 35 -8 23 0 41 5 41 10 0 12 -69 10 -76 -2z"/>
<path d="M1933 543 c9 -2 25 -2 35 0 9 3 1 5 -18 5 -19 0 -27 -2 -17 -5z"/>
</g>
</svg>
